v -0.782 -5.960464E-08 1.344
v 0.218 -5.960464E-08 1.344
v -0.782 0.9999999 1.344
v 0.218 0.9999999 1.344
v -0.782 -5.960464E-08 0.344
v 0.218 -5.960464E-08 0.344
v -0.782 0.9999999 0.344
v 0.218 0.9999999 0.344

vn -0.5773503 -0.5773503 0.5773503
vn 0.5773503 -0.5773503 0.5773503
vn -0.5773503 0.5773503 0.5773503
vn 0.5773503 0.5773503 0.5773503
vn -0.5773503 -0.5773503 -0.5773503
vn 0.5773503 -0.5773503 -0.5773503
vn -0.5773503 0.5773503 -0.5773503
vn 0.5773503 0.5773503 -0.5773503

vt 0.5 0.5
vt -0.5 0.5
vt -0.5 0.5
vt 0.5 0.5
vt 0.5 -0.5
vt -0.5 -0.5
vt -0.5 -0.5
vt 0.5 -0.5

f 1/1/1 2/2/2 4/4/4
f 1/1/1 4/4/4 3/3/3
f 6/6/6 5/5/5 7/7/7
f 6/6/6 7/7/7 8/8/8
f 6/6/6 8/8/8 4/4/4
f 6/6/6 4/4/4 2/2/2
f 1/1/1 3/3/3 7/7/7
f 1/1/1 7/7/7 5/5/5
f 7/7/7 3/3/3 4/4/4
f 7/7/7 4/4/4 8/8/8
f 6/6/6 2/2/2 1/1/1
f 6/6/6 1/1/1 5/5/5
